<?xml version="1.0" standalone="no"?><!DOCTYPE svg PUBLIC "-//W3C//DTD SVG 1.1//EN" "http://www.w3.org/Graphics/SVG/1.1/DTD/svg11.dtd"><svg t="1665474575429" class="icon" viewBox="0 0 1024 1024" version="1.1" xmlns="http://www.w3.org/2000/svg" p-id="4691" xmlns:xlink="http://www.w3.org/1999/xlink" width="200" height="200"><path d="M221.696 211.456h548.352c35.84 0 64.512 28.672 64.512 64.512v322.56c0 35.84-28.672 64.512-64.512 64.512H221.696c-35.84 0-64.512-28.672-64.512-64.512V276.48c0-35.84 29.184-65.024 64.512-65.024z" fill="#CAE4FF" p-id="4692"></path><path d="M879.616 113.664H124.416c-35.328 0-64 28.672-64 64v517.12c0 35.328 28.672 64 64 64h345.6v139.264H161.792c-17.408 0-32.256 13.824-32.768 31.232-0.512 17.408 13.312 32.256 31.232 32.768h681.984c17.408 0 32.256-13.824 32.768-31.232 0.512-17.408-13.312-32.256-31.232-32.768h-309.76v-139.264h345.6c35.328 0 64-28.672 64-64v-517.12c-0.512-35.328-29.184-64-64-64z m0 580.608H124.416V177.664h755.2v516.608z" fill="#0972E7" p-id="4693"></path><path d="M257.024 253.952h-33.792c-11.776 0-20.992 9.728-21.504 21.504v33.792c0 11.776 9.728 20.992 21.504 21.504h33.792c11.776 0 20.992-9.728 21.504-21.504v-33.792c0-11.776-9.728-21.504-21.504-21.504z m96.768 0h-33.792c-11.776 0-20.992 9.728-21.504 21.504v33.792c0 11.776 9.728 20.992 21.504 21.504h33.792c11.776 0 20.992-9.728 21.504-21.504v-33.792c0-11.776-9.728-21.504-21.504-21.504z m96.768 0h-33.792c-11.776 0-20.992 9.728-21.504 21.504v33.792c0 11.776 9.728 20.992 21.504 21.504H450.56c11.776 0 20.992-9.728 21.504-21.504v-33.792c0-11.776-9.728-21.504-21.504-21.504z" fill="#0972E7" p-id="4694"></path></svg>